<mxfile host="app.diagrams.net" modified="2021-08-20T05:29:19.211Z" agent="5.0 (Macintosh; Intel Mac OS X 10_15_7) AppleWebKit/537.36 (KHTML, like Gecko) Chrome/92.0.4515.159 Safari/537.36" etag="n0xHSyyaaEINU8AN-tS6" version="14.8.1" type="github">
  <diagram id="dpzgCM_Bc3UVAEGsuVad" name="第 1 页">
    <mxGraphModel dx="1373" dy="770" grid="0" gridSize="10" guides="1" tooltips="1" connect="1" arrows="1" fold="1" page="0" pageScale="1" pageWidth="827" pageHeight="1169" math="0" shadow="0">
      <root>
        <mxCell id="0" />
        <mxCell id="1" parent="0" />
        <mxCell id="RM8X_YuoQLqRLdgXc8Fh-1" value="&lt;span style=&quot;font-size: 12px&quot;&gt;创建EntranceNode&lt;/span&gt;" style="rounded=1;whiteSpace=wrap;html=1;absoluteArcSize=1;arcSize=14;strokeWidth=2;" vertex="1" parent="1">
          <mxGeometry x="26" y="148" width="222" height="53" as="geometry" />
        </mxCell>
        <mxCell id="RM8X_YuoQLqRLdgXc8Fh-2" value="关联root节点" style="rounded=1;whiteSpace=wrap;html=1;absoluteArcSize=1;arcSize=14;strokeWidth=2;" vertex="1" parent="1">
          <mxGeometry x="26" y="264" width="222" height="53" as="geometry" />
        </mxCell>
        <mxCell id="RM8X_YuoQLqRLdgXc8Fh-3" value="创建Context" style="rounded=1;whiteSpace=wrap;html=1;absoluteArcSize=1;arcSize=14;strokeWidth=2;" vertex="1" parent="1">
          <mxGeometry x="24" y="380" width="222" height="53" as="geometry" />
        </mxCell>
      </root>
    </mxGraphModel>
  </diagram>
</mxfile>
